<svg id="_x31_px" enable-background="new 0 0 24 24" height="512" viewBox="0 0 24 24" width="512" xmlns="http://www.w3.org/2000/svg"><path d="m21 24h-18c-1.654 0-3-1.346-3-3s1.346-3 3-3h18c1.654 0 3 1.346 3 3s-1.346 3-3 3zm-18-5c-1.103 0-2 .897-2 2s.897 2 2 2h18c1.103 0 2-.897 2-2s-.897-2-2-2z"/><path d="m12 16c-.128 0-.256-.049-.354-.146l-5.5-5.5c-.142-.144-.185-.358-.108-.545s.26-.309.462-.309h3v-1.5c0-4.41 3.587-7.998 7.997-8h.003c.276 0 .5.224.5.5s-.224.5-.5.5c-1.654 0-3 1.346-3 3v5.5h3c.202 0 .385.122.462.309s.034.402-.108.545l-5.5 5.5c-.098.097-.226.146-.354.146zm-4.293-5.5 4.293 4.293 4.293-4.293h-2.293c-.276 0-.5-.224-.5-.5v-6c0-.78.225-1.508.611-2.124-2.151 1.195-3.611 3.493-3.611 6.124v2c0 .276-.224.5-.5.5z"/></svg>