<?xml version="1.0" encoding="iso-8859-1"?>
<!-- Generator: Adobe Illustrator 19.0.0, SVG Export Plug-In . SVG Version: 6.00 Build 0)  -->
<svg version="1.1" id="Layer_1" xmlns="http://www.w3.org/2000/svg" xmlns:xlink="http://www.w3.org/1999/xlink" x="0px" y="0px"
	 viewBox="0 0 512 512" style="enable-background:new 0 0 512 512;" xml:space="preserve">
<g>
	<g>
		<g>
			<path d="M262.785,317.207c-1.913-4.032-6.736-5.752-10.769-3.837c-6.562,3.114-13.442,5.688-20.448,7.648
				c-2.931,0.82-5.152,3.215-5.748,6.2l-8.552,42.758c-0.844,4.222-4.582,7.287-8.888,7.287h-23.329
				c-4.306,0-8.043-3.064-8.888-7.287l-8.552-42.758c-0.597-2.985-2.819-5.38-5.748-6.2c-9.898-2.77-19.45-6.728-28.391-11.764
				c-2.653-1.494-5.92-1.371-8.452,0.317l-36.286,24.19c-3.582,2.388-8.392,1.911-11.438-1.133L60.8,316.131
				c-3.045-3.045-3.52-7.855-1.133-11.438l24.19-36.286c1.689-2.533,1.812-5.799,0.317-8.452
				c-5.037-8.942-8.995-18.495-11.764-28.391c-0.82-2.931-3.215-5.152-6.2-5.748l-42.758-8.552
				c-4.222-0.844-7.287-4.582-7.287-8.888v-23.329c0-4.306,3.064-8.043,7.287-8.888l42.758-8.552c2.985-0.597,5.38-2.819,6.2-5.748
				c2.77-9.898,6.728-19.45,11.764-28.391c1.494-2.652,1.371-5.919-0.317-8.452L59.669,88.734
				c-2.388-3.583-1.912-8.392,1.133-11.438l16.496-16.496c3.045-3.045,7.856-3.52,11.438-1.133l36.286,24.19
				c2.532,1.689,5.8,1.811,8.452,0.317c8.941-5.036,18.493-8.994,28.391-11.764c2.931-0.82,5.152-3.215,5.748-6.2l8.552-42.758
				c0.844-4.222,4.582-7.287,8.888-7.287h23.329c4.306,0,8.043,3.064,8.888,7.287l8.552,42.758c0.597,2.985,2.819,5.38,5.748,6.2
				c9.898,2.77,19.45,6.728,28.391,11.764c2.653,1.494,5.92,1.371,8.452-0.317l36.286-24.19c3.582-2.388,8.391-1.911,11.438,1.133
				l16.496,16.496c3.045,3.045,3.52,7.855,1.133,11.438l-24.19,36.286c-1.689,2.533-1.812,5.799-0.317,8.452
				c5.036,8.941,8.994,18.493,11.764,28.391c0.82,2.931,3.215,5.152,6.2,5.748l42.758,8.552c4.222,0.844,7.287,4.582,7.287,8.888
				v23.329c0,4.306-3.064,8.043-7.287,8.888l-42.758,8.552c-2.985,0.597-5.38,2.819-6.2,5.75c-2.009,7.18-4.66,14.223-7.88,20.934
				c-1.932,4.025-0.234,8.854,3.791,10.785c4.025,1.933,8.855,0.234,10.785-3.791c2.906-6.057,5.401-12.354,7.442-18.777
				l37.991-7.598c11.749-2.352,20.279-12.758,20.279-24.744v-23.329c0-11.986-8.53-22.391-20.284-24.743l-37.99-7.598
				c-2.492-7.844-5.65-15.47-9.434-22.769l21.492-32.239c6.648-9.973,5.323-23.363-3.153-31.839l-16.496-16.496
				c-8.477-8.476-21.867-9.8-31.839-3.153l-32.239,21.492c-7.299-3.783-14.925-6.942-22.769-9.434l-7.598-37.99
				C230.772,8.53,220.366,0,208.38,0h-23.329c-11.986,0-22.391,8.53-24.743,20.284l-7.598,37.99
				c-7.844,2.492-15.47,5.65-22.769,9.434L97.704,46.216c-9.972-6.648-23.363-5.324-31.839,3.153L49.369,65.865
				c-8.475,8.476-9.801,21.865-3.153,31.839l21.492,32.239c-3.783,7.299-6.942,14.924-9.434,22.769l-37.991,7.598
				C8.53,162.66,0,173.066,0,185.052v23.329c0,11.986,8.53,22.391,20.284,24.743l37.99,7.598c2.491,7.843,5.65,15.469,9.434,22.769
				L46.216,295.73c-6.648,9.973-5.323,23.363,3.153,31.839l16.496,16.496c8.476,8.476,21.866,9.8,31.839,3.153l32.239-21.492
				c7.299,3.783,14.924,6.942,22.769,9.434l7.598,37.992c2.35,11.75,12.756,20.281,24.742,20.281h23.329
				c11.986,0,22.391-8.53,24.743-20.284l7.598-37.99c6.229-1.979,12.343-4.386,18.228-7.18
				C262.983,326.063,264.701,321.241,262.785,317.207z"/>
			<path d="M266.739,241.636c1.18,0.606,2.44,0.893,3.682,0.893c2.936,0,5.769-1.605,7.2-4.397
				c6.52-12.715,9.967-27.036,9.967-41.415c0-50.107-40.765-90.873-90.873-90.873c-23.838,0-46.364,9.162-63.43,25.801
				c-3.197,3.116-3.262,8.235-0.146,11.431c3.116,3.196,8.234,3.263,11.431,0.146c14.029-13.676,32.547-21.209,52.143-21.209
				c41.192,0,74.705,33.512,74.705,74.705c0,11.994-2.754,23.446-8.185,34.038C261.197,234.726,262.766,239.598,266.739,241.636z"/>
			<path d="M121.043,162.125c-4.223-1.453-8.821,0.792-10.274,5.014c-3.267,9.498-4.924,19.45-4.924,29.577
				c0,50.108,40.766,90.873,90.873,90.873c19.271,0,37.683-5.956,53.247-17.227c3.616-2.619,4.425-7.674,1.807-11.29
				c-2.618-3.616-7.674-4.425-11.29-1.807c-12.788,9.259-27.921,14.154-43.765,14.154c-41.193,0-74.705-33.513-74.705-74.705
				c0-8.334,1.36-16.517,4.044-24.318C127.508,168.175,125.264,163.576,121.043,162.125z"/>
			<path d="M496.442,353.316l-23.377-4.675c-1.424-4.237-3.139-8.374-5.127-12.373l13.226-19.838
				c5.099-7.65,4.083-17.92-2.418-24.42l-10.84-10.84c-6.501-6.5-16.771-7.517-24.42-2.418l-19.838,13.226
				c-3.999-1.988-8.136-3.703-12.373-5.126l-4.675-23.377c-1.803-9.015-9.784-15.558-18.977-15.558h-15.331
				c-9.192,0-17.174,6.543-18.977,15.558l-4.675,23.377c-4.237,1.424-8.374,3.139-12.373,5.126l-19.838-13.226
				c-7.65-5.098-17.92-4.083-24.42,2.418l-10.84,10.84c-6.501,6.501-7.517,16.771-2.418,24.42l13.226,19.838
				c-2.734,5.498-4.949,11.256-6.605,17.177c-1.203,4.3,1.308,8.76,5.607,9.964c4.3,1.203,8.76-1.307,9.964-5.607
				c1.76-6.292,4.276-12.362,7.476-18.043c1.494-2.653,1.371-5.92-0.317-8.452l-15.897-23.845c-0.839-1.259-0.672-2.949,0.398-4.019
				l10.84-10.84c1.07-1.069,2.76-1.235,4.019-0.398l23.845,15.897c2.532,1.689,5.799,1.811,8.452,0.317
				c5.682-3.2,11.751-5.716,18.043-7.476c2.931-0.82,5.152-3.215,5.748-6.2l5.619-28.097c0.296-1.483,1.61-2.56,3.123-2.56h15.331
				c1.512,0,2.826,1.077,3.123,2.56l5.619,28.099c0.597,2.985,2.819,5.38,5.748,6.2c6.292,1.76,12.362,4.276,18.043,7.476
				c2.652,1.494,5.92,1.371,8.452-0.317l23.845-15.897c1.259-0.839,2.949-0.673,4.019,0.398l10.84,10.84
				c1.069,1.07,1.236,2.76,0.398,4.019l-15.897,23.845c-1.689,2.533-1.812,5.799-0.317,8.452c3.2,5.682,5.716,11.751,7.476,18.043
				c0.82,2.931,3.215,5.152,6.2,5.748l28.097,5.619c1.483,0.296,2.56,1.61,2.56,3.123v15.331c0,1.512-1.077,2.826-2.56,3.123
				l-28.099,5.619c-2.985,0.597-5.38,2.819-6.2,5.748c-1.76,6.292-4.276,12.362-7.476,18.043c-1.494,2.653-1.371,5.92,0.317,8.452
				l15.897,23.845c0.839,1.259,0.672,2.949-0.398,4.019l-10.84,10.84c-1.069,1.07-2.759,1.236-4.019,0.398l-23.845-15.897
				c-2.532-1.688-5.8-1.811-8.452-0.317c-5.682,3.2-11.751,5.716-18.043,7.476c-2.931,0.82-5.152,3.215-5.748,6.2l-5.619,28.097
				c-0.296,1.483-1.61,2.56-3.123,2.56h-15.331c-1.512,0-2.826-1.077-3.123-2.56l-5.619-28.099c-0.597-2.985-2.819-5.38-5.748-6.2
				c-6.292-1.76-12.362-4.276-18.043-7.476c-2.653-1.494-5.921-1.371-8.452,0.317l-23.845,15.897
				c-1.259,0.839-2.949,0.673-4.019-0.398l-10.84-10.84c-1.069-1.07-1.236-2.76-0.398-4.019l15.897-23.845
				c1.689-2.533,1.812-5.799,0.317-8.452c-3.2-5.682-5.716-11.751-7.476-18.043c-0.82-2.931-3.215-5.152-6.2-5.748l-28.097-5.619
				c-1.483-0.296-2.56-1.61-2.56-3.123v-15.331c0-1.512,1.077-2.826,2.56-3.123l1.72-0.344c4.378-0.876,7.218-5.135,6.341-9.513
				c-0.876-4.378-5.13-7.213-9.514-6.341l-1.72,0.344c-9.013,1.804-15.556,9.785-15.556,18.978v15.331
				c0,9.192,6.543,17.174,15.558,18.977l23.377,4.675c1.424,4.237,3.139,8.374,5.126,12.373l-13.226,19.838
				c-5.1,7.65-4.083,17.92,2.418,24.42l10.84,10.84c6.501,6.501,16.771,7.517,24.42,2.418l19.838-13.226
				c3.999,1.988,8.136,3.703,12.373,5.126l4.675,23.377C355.119,505.457,363.1,512,372.293,512h15.331
				c9.192,0,17.174-6.543,18.977-15.558l4.675-23.377c4.237-1.424,8.374-3.139,12.373-5.127l19.838,13.226
				c7.65,5.099,17.92,4.083,24.42-2.418l10.84-10.84c6.501-6.501,7.517-16.771,2.418-24.42l-13.226-19.838
				c1.988-3.999,3.703-8.136,5.126-12.373l23.377-4.675c9.014-1.803,15.557-9.784,15.557-18.977v-15.331
				C512,363.1,505.457,355.119,496.442,353.316z"/>
			<path d="M379.958,350.855c16.048,0,29.103,13.055,29.103,29.103c0,4.465,3.62,8.084,8.084,8.084s8.084-3.62,8.084-8.084
				c0-24.963-20.309-45.272-45.272-45.272s-45.272,20.309-45.272,45.272s20.309,45.272,45.272,45.272
				c10.111,0,19.675-3.261,27.659-9.429c3.533-2.73,4.184-7.807,1.455-11.341c-2.73-3.533-7.808-4.185-11.341-1.455
				c-5.128,3.961-11.274,6.056-17.773,6.056c-16.048,0-29.103-13.055-29.103-29.103C350.855,363.909,363.91,350.855,379.958,350.855
				z"/>
			<path d="M245.969,196.716c0-27.158-22.096-49.253-49.253-49.253c-27.158,0-49.253,22.096-49.253,49.253
				c0,27.158,22.095,49.253,49.253,49.253S245.969,223.873,245.969,196.716z M163.631,196.716c0-18.242,14.843-33.085,33.085-33.085
				c18.242,0,33.085,14.843,33.085,33.085c0,18.242-14.842,33.085-33.085,33.085C178.472,229.801,163.631,214.958,163.631,196.716z"
				/>
		</g>
	</g>
</g>
<g>
</g>
<g>
</g>
<g>
</g>
<g>
</g>
<g>
</g>
<g>
</g>
<g>
</g>
<g>
</g>
<g>
</g>
<g>
</g>
<g>
</g>
<g>
</g>
<g>
</g>
<g>
</g>
<g>
</g>
</svg>
