<?xml version="1.0" encoding="iso-8859-1"?>
<!-- Generator: Adobe Illustrator 19.0.0, SVG Export Plug-In . SVG Version: 6.00 Build 0)  -->
<svg version="1.1" id="Capa_1" xmlns="http://www.w3.org/2000/svg" xmlns:xlink="http://www.w3.org/1999/xlink" x="0px" y="0px"
	 viewBox="0 0 434.393 434.393" style="enable-background:new 0 0 434.393 434.393;" xml:space="preserve">
<path id="XMLID_290_" d="M40.452,400.164c-11.329-7.896-18.093-20.774-18.093-34.45v-54.976c0-5.973,4.222-10.977,9.838-12.185
	c0.159-0.027,0.316-0.058,0.474-0.093c0.699-0.122,1.417-0.186,2.15-0.186h135.434c1.081,0,2.13,0.139,3.132,0.398
	c0.19,0.062,0.383,0.116,0.577,0.165c5.066,1.582,8.754,6.318,8.754,11.899v46.084c0,4.971,4.029,9,9,9s9-4.029,9-9v-46.084
	c0-10.015-4.857-18.916-12.34-24.472c0.77-2.426,1.156-4.912,1.156-7.448c0-22.916-32.49-40.548-76.934-42.654v-12.366
	c0-4.971-4.029-9-9-9s-9,4.029-9,9v12.366c-44.442,2.106-76.933,19.738-76.933,42.654c0,2.112,0.269,4.189,0.802,6.228
	c-8.478,5.414-14.11,14.908-14.11,25.692v54.976c0,19.56,9.646,37.959,25.802,49.218c1.567,1.093,3.361,1.617,5.138,1.617
	c2.844,0,5.643-1.345,7.392-3.855C45.532,408.615,44.53,403.006,40.452,400.164z M103.601,253.953
	c41.47,0,67.934,14.727,67.934,24.865c0,0.482-0.061,0.975-0.181,1.477c-0.365-0.013-0.73-0.02-1.099-0.02H35.843
	c-0.116-0.494-0.175-0.98-0.175-1.457C35.668,268.68,62.132,253.953,103.601,253.953z M421.033,0H73.212c-4.971,0-9,4.029-9,9
	v86.822c-0.001,0.045-0.001,0.09-0.001,0.135s0,0.09,0.001,0.135v86.685c-0.001,0.045-0.001,0.09-0.001,0.135s0,0.09,0.001,0.135
	v24.798c0,4.971,4.029,9,9,9s9-4.029,9-9v-15.933h68.956v17.829c0,4.971,4.029,9,9,9s9-4.029,9-9v-17.829h68.955v68.954h-19.844
	c-4.971,0-9,4.029-9,9s4.029,9,9,9h19.844v68.957h-9.817c-4.971,0-9,4.029-9,9s4.029,9,9,9h192.728c4.971,0,9-4.029,9-9V9
	C430.033,4.029,426.004,0,421.033,0z M151.168,173.911H82.212v-68.954h68.956V173.911z M151.168,86.957H82.212V18h68.956V86.957z
	 M238.123,173.911h-68.955v-68.954h68.955V173.911z M238.123,86.957h-68.955V18h68.955V86.957z M325.075,347.822h-68.952v-68.957
	h68.952V347.822z M325.075,260.865h-68.952v-68.954h68.952V260.865z M325.075,173.911h-68.952v-68.954h68.952V173.911z
	 M325.075,86.957h-68.952V18h68.952V86.957z M412.033,347.822h-68.958v-68.957h68.958V347.822z M412.033,260.865h-68.958v-68.954
	h68.958V260.865z M412.033,173.911h-68.958v-68.954h68.958V173.911z M412.033,86.957h-68.958V18h68.958V86.957z M187.046,378.297
	c-16.59,0-30.726,4.368-39.351,11.333c-1.008-0.814-2.092-1.593-3.245-2.333c7.684-4.929,12.245-11.557,12.245-19.047
	c0-15.99-20.787-28.048-48.352-28.048c-27.563,0-48.35,12.058-48.35,28.048c0,7.49,4.562,14.118,12.244,19.047
	c-7.683,4.93-12.244,11.558-12.244,19.048c0,15.99,20.786,28.048,48.35,28.048c16.591,0,30.726-4.368,39.352-11.333
	c8.625,6.965,22.761,11.333,39.351,11.333c27.564,0,48.351-12.058,48.351-28.048S214.61,378.297,187.046,378.297z M108.344,416.393
	c-19.586,0-30.35-7.547-30.35-10.048s10.764-10.048,30.35-10.048c19.587,0,30.352,7.547,30.352,10.048
	S127.931,416.393,108.344,416.393z M108.344,378.297c-19.586,0-30.35-7.546-30.35-10.047s10.764-10.048,30.35-10.048
	c19.587,0,30.352,7.547,30.352,10.048S127.931,378.297,108.344,378.297z M187.046,416.393c-19.587,0-30.351-7.547-30.351-10.048
	s10.764-10.048,30.351-10.048s30.351,7.547,30.351,10.048S206.633,416.393,187.046,416.393z"/>
<g>
</g>
<g>
</g>
<g>
</g>
<g>
</g>
<g>
</g>
<g>
</g>
<g>
</g>
<g>
</g>
<g>
</g>
<g>
</g>
<g>
</g>
<g>
</g>
<g>
</g>
<g>
</g>
<g>
</g>
</svg>
